<svg viewBox="0 0 400 300" fill="none" xmlns="http://www.w3.org/2000/svg"><path fill="#011650" d="M125.364 233.096h59.386V270h-59.386z"/><path d="M177.206 255.103c0-19.416 15.74-35.157 35.156-35.157h24.229v48.822h-59.385v-13.665Z" fill="#011650"/><path fill="#5783FC" d="M135.494 233.055h53.033v36.944h-53.033z"/><mask id="a" style="mask-type:alpha" maskUnits="userSpaceOnUse" x="135" y="233" width="54" height="37"><path fill="#5783FC" d="M135.494 233.055h53.033v36.944h-53.033z"/></mask><g mask="url(#a)"><path d="M118.511 246.463c12.712 1.092 38.137-.894 38.137-17.579 0-16.684-20.459 15.493-30.688 33.667-4.271 5.165-14.718 10.547-10.428 11.024 5.363.596 73.293-19.366 78.656-44.691 5.363-25.324-45.287 27.709-40.52 46.777 3.814 15.254 30.191-7.945 42.903-21.452" stroke="#fff" stroke-width=".596"/></g><path d="m227.855 187.173 14.301 49.458h-27.41v-49.458h13.109Z" fill="#011650"/><path d="M226.663 187.173c13.164 0 23.836 10.671 23.836 23.835v16.089h-23.836v-39.924Z" fill="#CFEDFC"/><path d="M188.356 261.658c0-22.803 18.485-41.288 41.287-41.288h35.329v49.206h-76.616v-7.918Z" fill="#fff" stroke="#5783FC" stroke-width=".848"/><path d="M86.036 270h228.221" stroke="#011650" stroke-width=".834" stroke-linecap="round"/><path fill-rule="evenodd" clip-rule="evenodd" d="M294.634 237.338h-11.453v.001l-.212-.001c-9.02 0-16.331 7.311-16.331 16.331 0 9.019 7.311 16.331 16.331 16.331l.212-.001V270h11.453v-4.902a16.277 16.277 0 0 0 4.666-11.429c0-4.45-1.78-8.484-4.666-11.43v-4.901Z" fill="#011650"/><circle cx="294.422" cy="253.669" r="15.907" fill="#F575A2" stroke="#F575A2" stroke-width=".848"/><path opacity=".5" d="M233.218 178.235c-23.365 0-42.307-19.075-42.307-42.605 0-23.531 18.942-42.606 42.307-42.606v85.211Z" fill="#CFEDFC"/><path opacity=".5" d="M253.478 141.29c23.695 0 42.903-19.208 42.903-42.903s-19.208-42.903-42.903-42.903v85.806Z" fill="#8FEFE6"/><path d="m213.718 97.218-27.89.166a1.286 1.286 0 0 0-1.279 1.294l.131 22.001c.004.71.584 1.283 1.294 1.279l27.891-.167a1.287 1.287 0 0 0 1.279-1.294l-.131-22a1.287 1.287 0 0 0-1.295-1.28Z" fill="#22D5EC"/><path d="m215.127 117.213-30.464.182.02 3.309c.004.71.584 1.283 1.294 1.279l27.891-.167a1.287 1.287 0 0 0 1.279-1.294l-.02-3.309Z" fill="#221916"/><path d="m186.972 119.625 25.673-.15" stroke="#FFEDED" stroke-width=".663" stroke-miterlimit="10" stroke-linecap="round" stroke-linejoin="round"/><path d="M189.249 120.509a.976.976 0 1 0-1.147-1.579.976.976 0 0 0 1.147 1.579Z" fill="#5CE0D2"/><path d="m197.95 112.002.035-7.482 6.036 3.66-6.071 3.822Z" fill="#fff" stroke="#000" stroke-width=".663" stroke-miterlimit="10"/><path d="M286.009 152.122c-2.21-8.181-6.079-15.2-7.738-17.687l-16.305 9.12c-4.882 3.961-16.083 13.099-21.832 17.963-5.748 4.864-4.606 12.712-3.316 16.028l12.16 33.992h12.988c.277-1.658-6.022-33.163-7.68-37.308 1.99-.884 11.055-6.909 15.418-12.712l18.298 57.758 14.589-3.316c-2.982-18.792-14.371-55.658-16.582-63.838Z" fill="#5783FC"/><path fill-rule="evenodd" clip-rule="evenodd" d="M260.539 110.031a7.037 7.037 0 0 1-1.573-13.984 7.036 7.036 0 0 1 7.821 6.88 2.681 2.681 0 0 1-1.962 4.988 7.01 7.01 0 0 1-4.286 2.116Z" fill="#FC466F"/><path d="M230.096 116.004h-4.69" stroke="#221916" stroke-width=".829" stroke-linecap="round"/><path d="M264.512 152.121c.446.447 1.742 1.34 3.35 1.34 0 2.681.335 5.026 1.005 6.701" stroke="#000" stroke-width=".553" stroke-linecap="round" stroke-linejoin="round"/><path d="m303.817 224.692-19.961 6.744c-.291-2.156 2.302-4.594 3.722-5.772 1.135-.942 1.427-4.78 1.43-6.581l13.057-3.045 2.11 7.989a.553.553 0 0 1-.358.665ZM263.625 220.331h-19.949c.188-1.976 3.011-2.918 4.517-3.671 1.204-.603 1.152-3.954 1.527-5.554l12.235-.004 1.67 9.229Z" fill="#020641"/><path stroke="#fff" stroke-width=".461" d="m291.666 220.689-3.014.703"/><path stroke="#fff" stroke-width=".421" d="m251.75 213.084-2.823.001"/><path d="m291.952 221.918-3.421.773" stroke="#fff" stroke-width=".461"/><path d="m251.75 214.235-3.2-.021" stroke="#fff" stroke-width=".421"/><path d="M256.414 97.346c-3.14-1.535-3.162-3.129-2.78-3.734.679-1.155 2.059-.68 2.663-.3.494.395 1.881 1.138 3.48.958 1.997-.224 4.144.883 5.218 1.436 2.252-3.962 5.136-5.298 9.318-4.082 3.346.972 4.188 5.26 4.191 7.283 2.835-.769 8.664-.907 9.293 4.686.786 6.991-4.578 7.258-10.313 7.228-5.735-.029-8.257-4.465-8.889-7.091-.633-2.626.474-4.774.067-5.402-.408-.628-1.037-.22-1.295.483.476 1.834.326 3.896.192 4.698l-2.776-.699c-.407.383-1.398.764-2.11-.774-.891-1.923-2.335-2.772-6.259-4.69Z" fill="#000"/><path d="m254.554 117.847 6.365.67 3.686-.67 1.34-5.059c-.559-.112-2.837.203-6.031.67-4.355.636-5.36 1.34-6.365 2.345l1.005 2.044Z" fill="#FC466F"/><path d="m286.047 129.204 10.386-11.056c-4.691-4.02-8.711-5.36-16.082-6.03-5.897-.536-12.508.223-15.077.67-.111 1.452-1.206 4.489-4.69 5.025-3.484.536-5.696-1.563-6.366-2.68-1.898 1.564-6.298 5.763-8.711 10.051-2.412 4.289-5.695 4.467-7.035 4.02-.224 4.356-.737 13.402-1.005 14.742 13.736 1.005 16.751-5.361 19.097-9.046 2.948 4.02.335 11.28-1.341 14.407 9.046-.224 27.54-.738 29.148-1.006.67-6.7-4.69-20.102-6.03-23.117 3.484-.268 6.589 2.569 7.706 4.02Z" fill="#011650"/><path d="M228.086 135.57c2.54 3.07 7.817 6.701 9.716 7.371l.67-13.737c-1.005-.446-3.35-1.876-4.69-4.02-1.676-2.68-1.458-3.82-4.138-7.17-2.681-3.351-7.706-4.691-10.051-4.691-2.346 0-4.021 1.005-4.021 2.01 0 .805 1.34.559 2.011.335-.224.112-.671.604-.671 1.676 0 1.34.335 2.01.671 2.345-.336.67-.671 1.005-.336 2.345.336 1.34 1.676 2.68 3.016 2.68s2.68 2.346 3.685 4.021c1.005 1.675 1.598 3.765 4.138 6.835ZM299.113 133.895c2.949-9.113-.558-14.295-2.68-15.747-2.68 2.792-8.309 8.644-9.381 9.716 2.01 4.021-1.34 7.371-3.015 7.371-1.34 0-2.346-1.117-2.681-1.675-.223-.447-1.005-1.474-2.345-2.011-1.675-.67-2.68 0-3.015.336-.268.268-.335 1.005-.335 1.34-.224-.112-.804-.134-1.34.67s-.447 1.452-.335 1.675c-.112.112-.335.402-.335.67-.335.67.335 1.675.67 2.01.335.335 1.005 1.005 1.34 1.675.335.67 3.35 3.016 5.36 5.026 1.609 1.608 3.351 1.787 4.021 1.675 3.462-.447 11.123-3.618 14.071-12.731Z" fill="#FC466F"/><path d="M276.666 133.225c1.228.111 3.752.871 4.02 3.015M274.99 135.57c.894-.111 2.882.469 3.686 3.686" stroke="#000" stroke-width=".67" stroke-linecap="round"/><path d="M252.544 119.488c0 3.686 0 8.376 4.02 13.402" stroke="#fff" stroke-width=".67" stroke-linecap="round"/><path d="M221.72 114.328c-.223 1.005.067 3.083 3.015 3.351-1.005 1.005-1.34 3.35 0 4.69M218.369 116.674c1.117.447 3.217 1.742 2.681 3.35-.335 1.005-2.346.335-3.016 0 1.676 1.005 3.016 2.01 2.346 3.686" stroke="#000" stroke-width=".67" stroke-linecap="round"/><path d="M219.492 116.004h-4.448" stroke="#221916" stroke-width=".829" stroke-linecap="round"/><path d="M314.385 158.926c.446-.118.855.284.735.724l-2.132 7.846a.603.603 0 0 1-1.004.265l-5.825-5.743a.589.589 0 0 1 .269-.99l7.957-2.102Z" fill="#5783FC"/><path d="m91.398 255.415 5.887-9.25 10.372 5.325-3.149 2.815v10.382c3.744 0 5.125 3.63 5.348 5.304H97.663a3.924 3.924 0 0 1-3.84-3.112l-2.425-11.464Z" fill="#020641"/><path d="M116.502 211.419c4.609-13.022 9.907-26.012 14.348-35.167h47.915c11.274 0 10.761 10.525 10.249 13.862-.41 2.669-12.128 23.53-17.936 33.627h-13.58c2.989-8.899 9.48-27.621 11.53-31.317h-24.085c-2.306 5.733-7.636 18.687-10.505 24.643-2.87 5.955-19.518 28.975-27.547 36.248 0 0-6.447-3.083-10.652-5.326 3.844-6.417 15.394-29.125 20.263-36.57Z" fill="#F94F4B"/><path d="M131.763 183.82c.748 2.71 4.037 8.129 11.213 8.129h4.204" stroke="#000" stroke-width=".561" stroke-linecap="round" stroke-linejoin="round"/><path d="M153.69 233.436h23.204c-.237-2.194-4.458-2.552-5.73-3.925-1.558-1.681-.437-3.644 0-5.912l-13.598.174-4.379 8.854a.56.56 0 0 0 .503.809Z" fill="#020641"/><path stroke="#F7F9FC" stroke-width=".468" d="m167.817 225.826 3.138-.04M167.832 227.106l3.556-.07"/><path d="M196.464 138.588c-.684.532-3.076 2.465-5.811 5.126.259 2.065 2.859 5.506 4.101 7.178.313-.04 1.16-.874 2.051-1.367 2.099-1.393 5.063-3.727 6.5-4.305l4.72-4.167 1.993-3.11c.997-1.555.967-1.789 1.084-2.757.094-.775-.704-1.183-1.115-1.29.137-.176.299-.658-.147-1.174-1.086-1.055-2.816.354-3.197 1.116-.798-.281-1.388.333-1.583.676l-2.697 3.198c-.03-.235 0-1.128-.646-1.349-1.493-.51-3.886 1.16-5.253 2.225Z" fill="#509EF8"/><path d="M198.036 140.974c1.476-.9 4.545-2.906 5.014-3.727.469-.822 1.916-2.674 2.48-3.03.663-.419 1.707-.832 2.388.036.681.868.05 2.297-.351 2.904l-2.022 2.875-4.251 4.108" stroke="#000" stroke-width=".561" stroke-linecap="round" stroke-linejoin="round"/><path d="M210.781 134.273c-.558-.645-1.966-.468-2.57.419" stroke="#000" stroke-width=".561" stroke-linecap="round" stroke-linejoin="round"/><path d="M193.842 160.192c-.712.494-3.209 2.29-6.089 4.793.143 2.076 2.545 5.658 3.692 7.396.314-.021 1.206-.807 2.124-1.25 2.174-1.272 5.264-3.436 6.731-3.932l4.947-3.896 2.165-2.993c1.082-1.496 1.066-1.732 1.237-2.692.136-.768-.041-1.221-.445-1.351.146-.168.335-.639-.082-1.179-1.024-1.115-2.178.439-2.601 1.179-.781-.325-1.405.851-2.215.585l-3.525 2.798c-.016-.236.063-1.127-.569-1.384-1.462-.592-3.945.94-5.37 1.926Z" fill="#509EF8"/><path d="m197.357 150.032-7.008-6.728-18.501 18.781-2.803-18.781c-1.177-4.428-4.205-6.657-5.999-7.007-7.176-1.402-12.782.672-17.267 8.129l-15.417 32.907h28.76l.897 2.971c1.346 4.317 6.447 6.335 11.213 4.541l22.48-12.949-6.166-7.849h-2.523l12.334-14.015Z" fill="#CFEDFC"/><path d="m158.954 177.374-3.925-22.857" stroke="#000" stroke-width=".561" stroke-linecap="round" stroke-linejoin="round"/><path d="M158.954 177.373h-2.523l-.841-20.182 3.364 20.182Z" fill="#000"/><path fill-rule="evenodd" clip-rule="evenodd" d="M164.473 132.387a7.983 7.983 0 1 0-8.381-11.843 3.991 3.991 0 1 0-.197 7.639 7.985 7.985 0 0 0 8.578 4.204Z" fill="#509EF8"/><path d="M173.723 115.993c-1.137-6.052-6.265-4.529-8.687-3.01-3.714-2.784-6.794 2.436-7.425 3.714-1.681.316-2.469.754-3.379 2.085-.728 1.065-.56 3.199-.384 4.133.875.029 2.658.255 2.784.927.029 1.387.631 1.816.929 1.856.84-.157.757-1.541.927-2.784.368-2.68 4.868-1.881 6.725-1.263 3.31.636 9.646.394 8.51-5.658Z" fill="#202020"/><path stroke="#FC466F" stroke-width="1.788" stroke-linecap="round" d="m200.502 160.39 16.085-12.212"/><path d="m178.287 167.916-3.654 2.088-2.79-7.56" stroke="#000" stroke-width=".596" stroke-linecap="round" stroke-linejoin="round"/><path d="m214.961 31.3-3.634 10.692a.888.888 0 0 0 .556 1.13l5.35 1.818a.898.898 0 0 1 .516.455l1.895 3.847 3.848-1.895a.901.901 0 0 1 .686-.046l5.35 1.819a.887.887 0 0 0 1.129-.557l3.635-10.692a.888.888 0 0 0-.556-1.13l-17.645-5.997a.894.894 0 0 0-1.13.556Z" fill="#FC466F"/><path d="m224.094 37.468-.526.259-.259-.526a2.522 2.522 0 0 0-3.38-1.149 2.522 2.522 0 0 0-1.149 3.38l.259.526 1.705 3.46a1.19 1.19 0 0 0 1.595.543l3.461-1.705.525-.259a2.522 2.522 0 0 0 1.149-3.38 2.522 2.522 0 0 0-3.38-1.15Z" fill="#F7F9FC"/><path fill="#F575A2" d="M92.591 47.142h60.78v6.555h-60.78z"/><path stroke="#F6BCD1" stroke-width=".596" stroke-linecap="round" stroke-linejoin="round" d="M92.591 47.142h60.78v54.225h-60.78z"/><g clip-path="url(#b)"><path d="M159.031 61.74c-.894-1.787.298-3.773.894-5.362l-12.514-3.873-2.681 2.681v4.171c3.178 2.384 10.07 7.15 12.215 7.15 2.682 0 3.232-2.474 2.086-4.766Z" fill="#000"/><path fill-rule="evenodd" clip-rule="evenodd" d="M151.479 58.142a7.585 7.585 0 1 0-2.893-9.781 2.89 2.89 0 0 0-.341 5.769 7.557 7.557 0 0 0 3.234 4.011Z" fill="#A37CED"/><path d="M154.562 48.333c2.145-1.43 5.859-.993 7.448-.596 2.384-.596 3.278-2.979 2.682-4.767-.596-1.787-5.363-4.17-7.449-2.681-2.085 1.49-2.681.596-7.746 0s-6.555 1.788-7.449 4.171c-.893 2.384-1.787 4.767-5.66 4.767-3.874 0-10.726 2.086-6.257 7.747 4.171 0 8.938-1.788 10.726-1.192 1.787.596 3.277 1.787 4.767 2.98.893-1.292 2.681-4.053 2.681-4.768-1.49 0-1.995-.92-2.383-2.085-.298-1.49.298-2.88 1.489-3.278 1.788-.596 2.384.656 3.576.894 1.489.298 2.085.298 3.575-1.192Z" fill="#000"/><rect x="206.403" y="56.676" width="11.322" height="21.452" rx="1.192" fill="#CFEDFC"/><circle cx="212.064" cy="75.446" r=".894" fill="#fff"/><path d="M176.312 70.083 163.5 68.295l-4.767 9.483c4.469.398 13.884 1.192 15.791 1.192 2.384 0 7.697.342 10.13 0 3.873-.545 14.301-3.226 22.048-5.312v-4.52c.695-.298 3.277-.545 2.979-2.034-.175-.877-2.384 0-4.469.596-1.234.352-19.664 1.986-28.9 2.383Z" fill="#A37CED"/><path d="M140.261 55.415c-2.86-.954-16.486-.398-22.941 0l-.298 9.832 10.725-.596-12.811 6.554 17.578 14.37c3.079-2.283 6.257-9.007 10.428-10.198 6.555-1.873 12.712 1.658 16.387 2.453l4.171-9.535c-1.192-.893-3.873-2.085-7.15-3.644-8.343-3.277-12.514-8.045-16.089-9.236Z" fill="#F94F4B"/><path d="M103.615 59.06c3.873-.596 10.229-2.484 13.705-2.98 0 1.788 0 5.959-.298 8.938-4.767-.596-9.832 0-13.407.596-2.861.477-8.541 1.192-11.024 1.192v-5.661c1.986-.596 7.717-1.577 11.024-2.086Z" fill="#A37CED"/><path d="m114.936 64.72 2.384-8.044v4.17c0 1.789-.298 4.172-.298 4.172l-2.086-.298Z" fill="#000"/><path d="M93.484 199.686c-2.145-.953 2.086-9.931 4.47-14.301 1.986-2.383 6.137-7.329 9.235-8.044 1.788-.413 3.178 3.774 2.98 5.959v4.469l-2.682 2.383c0-.596.298-1.489 0-3.277-1.787 5.065-11.321 14.003-14.003 12.811Z" fill="#020641"/><path d="m98.132 185.385.596-27.41h11.321l-3.277 24.133c-3.178 4.568-9.712 12.911-10.904 12.513-.715-.238 1.37-5.958 2.264-9.236Z" fill="#A37CED"/><path d="M114.936 71.275c-5.661 1.191-16.883 8.77-22.345 13.04v16.982h8.938c-1.788 4.271-5.78 14.42-7.448 20.856-1.669 6.435 1.158 23.011 2.085 40.589 4.469-.099 13.143-.238 16.718 0-2.979-30.986 1.158-33.071 4.138-40.589 2.098-5.294 10.13-25.752 15.195-36.875-3.774-3.079-14.659-11.858-17.281-14.003Z" fill="#000"/><path d="m101.827 101.069 3.277-7.747c-.497-.993-1.43-3.277-1.192-4.469" stroke="#C35D81" stroke-width=".596" stroke-linecap="round" stroke-linejoin="round"/><mask id="c" style="mask-type:alpha" maskUnits="userSpaceOnUse" x="114" y="54" width="50" height="32"><path d="M140.261 55.415c-2.86-.954-16.486-.398-22.941 0l-.298 9.832 10.725-.596-12.811 6.554 17.578 14.37c3.079-2.283 6.257-9.007 10.428-10.198 6.555-1.873 12.712 1.658 16.387 2.453l4.171-9.535c-1.192-.893-3.873-2.085-7.15-3.644-8.343-3.277-12.514-8.045-16.089-9.236Z" fill="#F94F4B"/></mask><g mask="url(#c)" stroke="#fff" stroke-width=".596"><circle opacity=".7" cx="144.432" cy="75.148" r="2.086"/><circle opacity=".7" cx="154.562" cy="67.998" r="2.086"/><circle opacity=".7" cx="145.028" cy="65.018" r="2.086"/><circle opacity=".7" cx="139.069" cy="55.484" r="2.086"/><circle opacity=".7" cx="130.727" cy="74.552" r="2.086"/><circle opacity=".7" cx="133.706" cy="66.21" r="2.086"/><circle opacity=".7" cx="121.789" cy="68.594" r="2.086"/><circle opacity=".7" cx="131.322" cy="84.086" r="2.086"/><circle opacity=".7" cx="127.747" cy="58.463" r="2.086"/><circle opacity=".7" cx="117.021" cy="55.484" r="2.086"/><circle opacity=".7" cx="161.713" cy="73.36" r="2.086"/></g><path stroke="#000" stroke-width=".596" stroke-linecap="round" stroke-linejoin="round" d="M206.701 69.487v6.555M206.701 62.337v3.575"/></g><path d="M147.977 53.002c.382.196-.084 1.866-1.041 3.73-.957 1.865-2.043 3.218-2.424 3.022-.382-.197.084-1.867 1.041-3.731.492-.957 1.017-1.78 1.463-2.327" stroke="#15A89B" stroke-width=".596" stroke-linecap="round"/><circle cx="97.656" cy="50.419" r="1.192" stroke="#fff" stroke-width=".596"/><circle opacity=".3" cx="93.782" cy="218.159" r="3.747" fill="#fff" stroke="#5783FC" stroke-width=".848"/><circle opacity=".3" cx="274.036" cy="44.46" r="2.853" fill="#fff" stroke="#5783FC" stroke-width=".848"/><path d="m274.058 70.328 7.329 3.848 5.844-8.912 8.248 5.45 6.441-12.328" stroke="#000" stroke-width=".715" stroke-linecap="round" stroke-linejoin="round"/><path d="m298.771 58.992 3.282-.88 1.274 2.995" stroke="#000" stroke-width=".715" stroke-linecap="round" stroke-linejoin="round"/><circle cx="250.796" cy="235.141" r="5.661" fill="#fff" stroke="#5783FC" stroke-width="1.192"/><circle cx="237.091" cy="230.97" r="1.49" fill="#22D5EC"/><circle cx="231.728" cy="230.97" r="1.49" fill="#FC466F"/><rect x="204.02" y="254.507" width="53.033" height="1.192" rx=".596" fill="#CFEDFC"/><circle cx="248.115" cy="255.103" r="2.979" fill="#F575A2"/><path stroke="#C7D6FC" stroke-width=".596" stroke-linecap="round" d="m238.781 34.434 4.033-3.396M240.184 38.894l5.271.138"/><path d="M266.587 106.729h-.894l-.297 2.98h1.489l-.298-2.98Z" fill="#011650"/><defs><clipPath id="b"><path fill="#fff" transform="translate(92.59 37.608)" d="M0 0h125.134v162.079H0z"/></clipPath></defs></svg>